<svg xmlns="http://www.w3.org/2000/svg" viewBox="0 0 512 512">
  <defs>
    <linearGradient id="grad1" x1="0%" y1="0%" x2="100%" y2="100%">
      <stop offset="0%" style="stop-color:#0f172a;stop-opacity:1" />
      <stop offset="100%" style="stop-color:#334155;stop-opacity:1" />
    </linearGradient>
  </defs>
  <rect width="512" height="512" rx="100" fill="url(#grad1)" />
  <path d="M352 160h-96c-17.67 0-32 14.33-32 32v96c0 17.67-14.33 32-32 32h-32v-64c0-17.67-14.33-32-32-32s-32 14.33-32 32v96c0 17.67 14.33 32 32 32h96c17.67 0 32-14.33 32-32v-96c0-17.67 14.33-32 32-32h32v64c0 17.67 14.33 32 32 32s32-14.33 32-32v-96c0-17.67-14.33-32-32-32z" fill="#ffffff"/>
  <circle cx="160" cy="160" r="32" fill="#0ea5e9" />
  <circle cx="352" cy="352" r="32" fill="#0ea5e9" />
</svg>
